<svg width="30" height="30" viewBox="0 0 30 30" fill="none" xmlns="http://www.w3.org/2000/svg" xmlns:xlink="http://www.w3.org/1999/xlink">
<path d="M22,1L8,1L8,3L22,3L22,1ZM8,1C4.134,1 1,4.134 1,8L3,8C3,5.239 5.239,3 8,3L8,1ZM1,8L1,22L3,22L3,8L1,8ZM1,22C1,25.866 4.134,29 8,29L8,27C5.239,27 3,24.762 3,22L1,22ZM8,29L22,29L22,27L8,27L8,29ZM22,29C25.866,29 29,25.866 29,22L27,22C27,24.762 24.762,27 22,27L22,29ZM29,22L29,8L27,8L27,22L29,22ZM29,8C29,4.134 25.866,1 22,1L22,3C24.762,3 27,5.239 27,8L29,8Z" fill="#3F69D8"/>
<path d="M21.615,11.125C21.96,10.693 21.89,10.064 21.459,9.719C21.028,9.374 20.398,9.444 20.053,9.875L21.615,11.125ZM12.834,20.5L12.234,21.3C12.666,21.624 13.278,21.546 13.615,21.125L12.834,20.5ZM9.434,16.7C8.992,16.369 8.366,16.458 8.034,16.9C7.703,17.342 7.792,17.969 8.234,18.3L9.434,16.7ZM20.053,9.875L12.053,19.875L13.615,21.125L21.615,11.125L20.053,9.875ZM13.434,19.7L9.434,16.7L8.234,18.3L12.234,21.3L13.434,19.7Z" fill="#3F69D8"/>
</svg>
