<svg width="24" height="20" viewBox="0 0 24 20" fill="none" xmlns="http://www.w3.org/2000/svg" xmlns:xlink="http://www.w3.org/1999/xlink">
<mask id="mask_0_i_86_2747;33437_4766" style="mask-type:alpha" maskUnits="userSpaceOnUse" x="0.333496" y="0.66687" width="11.666579" height="9.394583">
<rect  x="0.333" y="0.667" width="23.333" height="18.789" fill="#000000"/>
</mask>
<path d="M12,7.248C10.448,7.248 9.187,8.511 9.187,10.062C9.187,11.613 10.448,12.874 12,12.874C13.551,12.874 14.814,11.613 14.814,10.062C14.814,8.511 13.551,7.248 12,7.248M12,14.624C9.483,14.624 7.437,12.578 7.437,10.062C7.437,7.546 9.483,5.498 12,5.498C14.516,5.498 16.564,7.546 16.564,10.062C16.564,12.578 14.516,14.624 12,14.624Z" clip-rule="evenodd" fill-rule="evenodd" fill="#3F69D8"/>
<g mask="url(#mask_0_i_86_2747;33437_4766)">
<path d="M2.165,10.061C4.335,14.855 7.99,17.705 12,17.706C16.01,17.705 19.665,14.855 21.835,10.061C19.665,5.269 16.01,2.418 12,2.417C7.991,2.418 4.335,5.269 2.165,10.061L2.165,10.061ZM12.002,19.456L11.998,19.456L11.996,19.456C7.171,19.453 2.838,16.071 0.404,10.407C0.31,10.186 0.31,9.936 0.404,9.716C2.838,4.053 7.172,0.671 11.996,0.667C11.999,0.666 11.999,0.666 12,0.667C12.002,0.666 12.002,0.666 12.003,0.667C16.829,0.671 21.162,4.053 23.595,9.716C23.691,9.936 23.691,10.186 23.595,10.407C21.163,16.071 16.829,19.453 12.003,19.456L12.002,19.456Z" clip-rule="evenodd" fill-rule="evenodd" fill="#3F69D8"/>
</g>
</svg>
